<?xml version="1.0" encoding="UTF-8"?>
<svg version="1.1" xmlns="http://www.w3.org/2000/svg" width="1536" height="1024">
<path d="M0 0 C506.88 0 1013.76 0 1536 0 C1536 337.92 1536 675.84 1536 1024 C1029.12 1024 522.24 1024 0 1024 C0 686.08 0 348.16 0 0 Z " fill="#FDFDFD" transform="translate(0,0)"/>
<path d="M0 0 C7.63395864 5.6396008 11.99997281 10.99991844 15 20 C15.25946295 24.14157909 15.23138491 28.28866234 15.25 32.4375 C15.270625 33.58283203 15.29125 34.72816406 15.3125 35.90820312 C15.32023438 37.56045898 15.32023438 37.56045898 15.328125 39.24609375 C15.3374707 40.25341553 15.34681641 41.2607373 15.35644531 42.29858398 C14.94458284 45.41999378 14.20188935 46.7761144 12 49 C9.08203125 49.609375 9.08203125 49.609375 5.8125 49.75 C4.72582031 49.80671875 3.63914062 49.8634375 2.51953125 49.921875 C1.68808594 49.94765625 0.85664062 49.9734375 0 50 C0 51.32 0 52.64 0 54 C4.29 54.33 8.58 54.66 13 55 C13.09765625 61.15234375 13.09765625 61.15234375 13 63 C11.18884044 64.81115956 8.38721773 64.38199448 5.9375 64.5625 C4.28041016 64.68818359 4.28041016 64.68818359 2.58984375 64.81640625 C1.73519531 64.87699219 0.88054688 64.93757813 0 65 C0 65.99 0 66.98 0 68 C0.85464844 68.06058594 1.70929687 68.12117188 2.58984375 68.18359375 C4.24693359 68.30927734 4.24693359 68.30927734 5.9375 68.4375 C7.59072266 68.55931641 7.59072266 68.55931641 9.27734375 68.68359375 C12 69 12 69 13 70 C13.125 73 13.125 73 13 76 C11.18884044 77.81115956 8.38721773 77.38199448 5.9375 77.5625 C4.28041016 77.68818359 4.28041016 77.68818359 2.58984375 77.81640625 C1.73519531 77.87699219 0.88054688 77.93757813 0 78 C0 79.32 0 80.64 0 82 C0.78246094 82.06058594 1.56492187 82.12117188 2.37109375 82.18359375 C3.88896484 82.30927734 3.88896484 82.30927734 5.4375 82.4375 C6.95150391 82.55931641 6.95150391 82.55931641 8.49609375 82.68359375 C11 83 11 83 12 84 C12.74486132 91.63177578 12.29779881 97.58335633 8 104 C7.46375 104.86625 6.9275 105.7325 6.375 106.625 C-0.44412502 113.44412502 -8.39993652 116.54838198 -17.875 117.3125 C-25.63036649 117.06871638 -33.42975496 114.51576832 -39 109 C-44.57097917 102.03949254 -47.20496779 95.86973479 -47.265625 86.953125 C-47 85 -47 85 -45 83 C-42.3984375 82.5859375 -42.3984375 82.5859375 -39.375 82.375 C-37.87066406 82.26285156 -37.87066406 82.26285156 -36.3359375 82.1484375 C-35.17964844 82.07496094 -35.17964844 82.07496094 -34 82 C-34 80.68 -34 79.36 -34 78 C-34.85464844 77.93941406 -35.70929687 77.87882812 -36.58984375 77.81640625 C-38.24693359 77.69072266 -38.24693359 77.69072266 -39.9375 77.5625 C-41.59072266 77.44068359 -41.59072266 77.44068359 -43.27734375 77.31640625 C-46 77 -46 77 -47 76 C-47.125 73 -47.125 73 -47 70 C-45.18884044 68.18884044 -42.38721773 68.61800552 -39.9375 68.4375 C-38.83277344 68.35371094 -37.72804688 68.26992188 -36.58984375 68.18359375 C-35.73519531 68.12300781 -34.88054688 68.06242187 -34 68 C-34 66.68 -34 65.36 -34 64 C-34.85464844 63.93941406 -35.70929687 63.87882812 -36.58984375 63.81640625 C-38.24693359 63.69072266 -38.24693359 63.69072266 -39.9375 63.5625 C-41.59072266 63.44068359 -41.59072266 63.44068359 -43.27734375 63.31640625 C-46 63 -46 63 -47 62 C-47.125 59 -47.125 59 -47 56 C-45.18884044 54.18884044 -42.38721773 54.61800552 -39.9375 54.4375 C-38.83277344 54.35371094 -37.72804688 54.26992188 -36.58984375 54.18359375 C-35.73519531 54.12300781 -34.88054688 54.06242187 -34 54 C-34 52.68 -34 51.36 -34 50 C-34.83144531 49.97421875 -35.66289063 49.9484375 -36.51953125 49.921875 C-37.60621094 49.86515625 -38.69289063 49.8084375 -39.8125 49.75 C-40.89144531 49.70359375 -41.97039063 49.6571875 -43.08203125 49.609375 C-46 49 -46 49 -47.65307617 47.31982422 C-50.27680579 42.80094098 -49.51131195 37.47103439 -49.5 32.375 C-49.52835937 31.23675781 -49.55671875 30.09851563 -49.5859375 28.92578125 C-49.60676029 19.85745463 -47.53551599 13.5892384 -42.0078125 6.4140625 C-30.60908204 -4.41709632 -14.2874955 -8.8672809 0 0 Z " fill="#6190EC" transform="translate(554,408)"/>
<path d="M0 0 C5.82711092 3.41128785 9.51861057 9.19998071 11.625 15.5 C12.62008976 23.03259806 11.56699232 29.95675112 7.625 36.5 C4.01488966 40.46291657 -0.3247445 44.29521257 -5.73828125 44.8359375 C-7.69314453 44.85527344 -7.69314453 44.85527344 -9.6875 44.875 C-10.98300781 44.90335938 -12.27851562 44.93171875 -13.61328125 44.9609375 C-18.78509044 44.32721633 -21.75088727 42.12411273 -25.375 38.5 C-25.705 46.42 -26.035 54.34 -26.375 62.5 C-30.005 62.5 -33.635 62.5 -37.375 62.5 C-37.375 41.71 -37.375 20.92 -37.375 -0.5 C-33.745 -0.5 -30.115 -0.5 -26.375 -0.5 C-26.375 1.48 -26.375 3.46 -26.375 5.5 C-25.715 5.5 -25.055 5.5 -24.375 5.5 C-24.16875 4.901875 -23.9625 4.30375 -23.75 3.6875 C-19.09532922 -3.71765806 -7.23001171 -3.12837045 0 0 Z " fill="#050505" transform="translate(826.375,477.5)"/>
<path d="M0 0 C35.00414938 0 35.00414938 0 43.4375 8.1953125 C47.61751764 13.02323287 47.49671889 18.82934831 47.375 24.9609375 C46.68450688 30.55680881 44.36702014 34.7967692 40.25 38.62890625 C35.77298811 42.01561136 32.16188319 43.13687059 26.671875 43.09765625 C25.5905127 43.09390991 25.5905127 43.09390991 24.48730469 43.09008789 C23.13233887 43.07643188 23.13233887 43.07643188 21.75 43.0625 C18.8625 43.041875 15.975 43.02125 13 43 C13 49.27 13 55.54 13 62 C8.71 62 4.42 62 0 62 C0 41.54 0 21.08 0 0 Z " fill="#050505" transform="translate(651,459)"/>
<path d="M0 0 C5.77101398 4.73012333 10.08782719 9.83087099 11.1171875 17.3828125 C11.35591326 25.54922281 10.25846692 31.21985614 4.7109375 37.40234375 C-0.48821495 42.15395011 -5.27704777 43.77429987 -12.2890625 43.96484375 C-20.63942892 43.53871213 -27.46880064 42.88266843 -33.2890625 36.46484375 C-39.28446468 28.98500305 -39.16079878 21.63357213 -38.2890625 12.40234375 C-36.23450736 5.99977657 -30.99829927 1.68260106 -25.2890625 -1.59765625 C-18.02222712 -4.19408545 -6.65739162 -4.08455687 0 0 Z " fill="#3189DC" transform="translate(939.2890625,478.59765625)"/>
<path d="M0 0 C4.70588235 0.70588235 4.70588235 0.70588235 6 2 C6.10969638 3.88183094 6.15590988 5.76742303 6.17578125 7.65234375 C6.19962891 8.82216797 6.22347656 9.99199219 6.24804688 11.19726562 C6.29040693 13.65543262 6.3219813 16.11381353 6.34179688 18.57226562 C6.58832419 29.08120905 8.61236933 37.38094924 15.9375 45.1796875 C24.42190567 52.66781826 32.95361644 55.59721753 44.12890625 55.3203125 C52.14014484 54.65742495 58.5739211 51.6589072 65 47 C65.99 46.67 66.98 46.34 68 46 C69.00916033 44.23408113 69.00916033 44.23408113 70 42 C70.9590625 40.63875 70.9590625 40.63875 71.9375 39.25 C77.18606225 30.97953827 77.48245567 23.66896948 77.625 14.0625 C77.67573509 11.61580027 77.73020696 9.16917412 77.7890625 6.72265625 C77.80662598 5.64765869 77.82418945 4.57266113 77.84228516 3.46508789 C78 1 78 1 79 0 C81.5 -0.125 81.5 -0.125 84 0 C86.71508889 2.71508889 85.23531977 10.78762675 85.25 14.4375 C85.270625 15.68466797 85.29125 16.93183594 85.3125 18.21679688 C85.37190958 32.34885158 81.85033052 41.8932798 72.25 52.25 C65.90842368 58.34860405 56.88162563 63 48 63 C48 66.3 48 69.6 48 73 C49.43214844 72.98839844 50.86429688 72.97679687 52.33984375 72.96484375 C54.20572787 72.95546745 56.07161339 72.94636708 57.9375 72.9375 C58.88302734 72.92912109 59.82855469 72.92074219 60.80273438 72.91210938 C62.15141602 72.90727539 62.15141602 72.90727539 63.52734375 72.90234375 C64.77632446 72.89448853 64.77632446 72.89448853 66.05053711 72.88647461 C68 73 68 73 69 74 C69.125 76.5 69.125 76.5 69 79 C67.33283316 80.66716684 65.3269386 80.12744882 63.03710938 80.12939453 C61.97931274 80.13254669 60.92151611 80.13569885 59.83166504 80.13894653 C58.68065308 80.1369223 57.52964111 80.13489807 56.34375 80.1328125 C54.58484436 80.13424759 54.58484436 80.13424759 52.79040527 80.13571167 C50.30541938 80.1363937 47.82043171 80.13453784 45.33544922 80.13037109 C41.51656113 80.12502319 37.69779065 80.13031536 33.87890625 80.13671875 C31.47135391 80.13605797 29.06380163 80.13477682 26.65625 80.1328125 C24.92973206 80.13584885 24.92973206 80.13584885 23.16833496 80.13894653 C22.11053833 80.13579437 21.0527417 80.13264221 19.96289062 80.12939453 C18.55843689 80.12820114 18.55843689 80.12820114 17.12561035 80.12698364 C15 80 15 80 14 79 C13.875 76.5 13.875 76.5 14 74 C15 73 15 73 16.94946289 72.88647461 C18.1984436 72.89432983 18.1984436 72.89432983 19.47265625 72.90234375 C20.37177734 72.90556641 21.27089844 72.90878906 22.19726562 72.91210938 C23.61555664 72.92467773 23.61555664 72.92467773 25.0625 72.9375 C26.01189453 72.94201172 26.96128906 72.94652344 27.93945312 72.95117188 C30.29299531 72.96299872 32.64650532 72.98093479 35 73 C35 69.7 35 66.4 35 63 C33.88625 62.938125 32.7725 62.87625 31.625 62.8125 C21.58207607 61.51721122 13.40185669 55.25040738 7.0546875 47.6796875 C-0.71021301 37.31565711 -1.45253895 27.65314815 -1.25 14.9375 C-1.24351084 13.59440662 -1.23829409 12.25130646 -1.234375 10.90820312 C-1.1545497 1.1545497 -1.1545497 1.1545497 0 0 Z " fill="#7470E3" transform="translate(495,476)"/>
<path d="M0 0 C4.62 0 9.24 0 14 0 C14.36351562 0.969375 14.72703125 1.93875 15.1015625 2.9375 C15.34148926 3.57719727 15.58141602 4.21689453 15.82861328 4.87597656 C16.36633267 6.31011472 16.90376048 7.74436223 17.44091797 9.17871094 C18.81852911 12.85607618 20.20010399 16.5318038 21.59375 20.203125 C30 42.3851039 30 42.3851039 30 47 C30.66 47 31.32 47 32 47 C32.16428749 46.1810022 32.16428749 46.1810022 32.33189392 45.34545898 C33.50693255 39.75143753 35.0855385 34.44258747 37.00390625 29.0625 C37.28725327 28.25635254 37.57060028 27.45020508 37.86253357 26.61962891 C38.45593454 24.93483764 39.05183211 23.25092375 39.65014648 21.56787109 C40.56924812 18.98100702 41.47952341 16.39115805 42.38867188 13.80078125 C42.96823869 12.15867361 43.54829873 10.51673996 44.12890625 8.875 C44.53829185 7.71109741 44.53829185 7.71109741 44.95594788 6.52368164 C46.88411805 1.11588195 46.88411805 1.11588195 48 0 C50.35313555 -0.07271741 52.70833668 -0.08370868 55.0625 -0.0625 C56.35285156 -0.05347656 57.64320313 -0.04445313 58.97265625 -0.03515625 C59.97167969 -0.02355469 60.97070312 -0.01195312 62 0 C59.78354622 6.80318464 57.34927741 13.49788745 54.8125 20.1875 C51.35025903 29.35851233 47.95722083 38.55135125 44.65161133 47.7800293 C44.19371216 49.05100464 44.19371216 49.05100464 43.7265625 50.34765625 C43.33331787 51.44605835 43.33331787 51.44605835 42.93212891 52.56665039 C41.71349928 55.74791846 40.34196024 58.86875944 39 62 C33.39 62 27.78 62 22 62 C16.46559884 47.65881333 11.15713327 33.24739624 5.99121094 18.76953125 C5.10808571 16.30200106 4.21692105 13.83765555 3.3203125 11.375 C3.08143311 10.7162085 2.84255371 10.05741699 2.59643555 9.37866211 C1.9915714 7.71153191 1.38456261 6.04518023 0.77734375 4.37890625 C0 2 0 2 0 0 Z " fill="#2D92DD" transform="translate(840,459)"/>
<path d="M0 0 C3.2578125 -0.29296875 3.2578125 -0.29296875 7.125 -0.1875 C9.04699219 -0.14689453 9.04699219 -0.14689453 11.0078125 -0.10546875 C11.99523438 -0.07066406 12.98265625 -0.03585937 14 0 C17.71469007 7.04389344 20.61109113 14.33487151 23.5 21.75 C23.97308594 22.94882812 24.44617187 24.14765625 24.93359375 25.3828125 C27.85859195 32.85330652 30.5302439 40.36795861 33 48 C33.66 49.98 34.32 51.96 35 54 C30.71 54 26.42 54 22 54 C21.01 50.37 20.02 46.74 19 43 C11.08 43 3.16 43 -5 43 C-5.99 46.63 -6.98 50.26 -8 54 C-11.96 54 -15.92 54 -20 54 C-19.38934229 49.39469598 -18.15882847 45.44060685 -16.453125 41.125 C-16.20004578 40.47861572 -15.94696655 39.83223145 -15.68621826 39.16625977 C-14.87961704 37.10863767 -14.06528704 35.05419413 -13.25 33 C-12.18969516 30.3136789 -11.13310791 27.62591513 -10.078125 24.9375 C-9.81866089 24.2787085 -9.55919678 23.61991699 -9.29187012 22.94116211 C-7.07334645 17.27357366 -5.04495867 11.54926768 -3.06933594 5.79296875 C-2 3 -2 3 0 0 Z " fill="#8D52B5" transform="translate(1040,467)"/>
<path d="M0 0 C5.33865159 3.22615289 8.99053053 7.39962211 10.5 13.4375 C10.5 17.0675 10.5 20.6975 10.5 24.4375 C-0.39 24.4375 -11.28 24.4375 -22.5 24.4375 C-19.5 32.4375 -19.5 32.4375 -14.5 34.4375 C-8.70699012 34.90467822 -5.63058402 34.35260455 -0.5 31.4375 C1.5 30.4375 1.5 30.4375 3.5 30.4375 C5.72574504 31.93051214 7.52607879 33.59816433 9.5 35.4375 C6.30312281 40.07812819 3.6940008 42.44467173 -1.77734375 43.9609375 C-10.17364003 45.43059051 -18.34229676 45.8195579 -25.6640625 40.98828125 C-31.48157241 36.07434203 -33.8617401 30.42823099 -34.82421875 22.90234375 C-35.30211276 15.35161835 -33.3020011 10.25651881 -28.5 4.4375 C-21.01023822 -2.43601556 -9.41312411 -4.27703115 0 0 Z " fill="#080808" transform="translate(769.5,477.5625)"/>
<path d="M0 0 C4.82835796 -0.67135876 9.19851234 -0.95104413 14 0 C17.60640488 3.16469823 19.91790636 6.69355787 22 11 C22 11.66 22 12.32 22 13 C22.66 13 23.32 13 24 13 C24.309375 12.01 24.309375 12.01 24.625 11 C28.490242 2.56674473 28.490242 2.56674473 32 0 C36.73734947 -0.69108327 41.24729853 -0.4687596 46 0 C44.65853607 2.89438031 43.12644631 5.24821139 41.109375 7.71484375 C40.29339844 8.74448242 40.29339844 8.74448242 39.4609375 9.79492188 C38.31609674 11.22858662 37.15968943 12.6530876 35.9921875 14.06835938 C32.80220935 17.85019044 32.80220935 17.85019044 32.26171875 22.49609375 C34.77356984 26.11428824 37.35617952 29.64951475 40.0625 33.125 C41.16120302 34.54144641 42.2564147 35.96060975 43.34765625 37.3828125 C43.83242432 38.00559082 44.31719238 38.62836914 44.81665039 39.27001953 C46 41 46 41 47 44 C41.7826601 44.73368842 37.19314051 45.05854126 32 44 C28.27530521 40.51104538 26.02219921 36.66462565 24 32 C24 31.34 24 30.68 24 30 C23.34 30 22.68 30 22 30 C21.59201172 30.82757813 21.59201172 30.82757813 21.17578125 31.671875 C20.78777344 32.44015625 20.39976562 33.2084375 20 34 C19.58105469 34.85078125 19.16210938 35.7015625 18.73046875 36.578125 C17.02687592 39.52814397 15.55742704 41.73145176 13 44 C8.54842615 44.86126021 4.47527887 44.60567684 0 44 C1.66616845 38.73786039 4.93068369 34.60840413 8.125 30.1875 C8.68832031 29.39923828 9.25164063 28.61097656 9.83203125 27.79882812 C11.21677658 25.86253169 12.60618627 23.92977359 14 22 C11.21823095 16.94341982 8.16114988 12.27566655 4.75 7.625 C0 1.12710674 0 1.12710674 0 0 Z " fill="#3588DB" transform="translate(953,477)"/>
<path d="M0 0 C2.53562284 2.53562284 2.23544304 4.12205742 2.24884033 7.57958984 C2.24164978 8.35786133 2.23445923 9.13613281 2.22705078 9.93798828 C2.22734283 10.75758026 2.22763489 11.57717224 2.22793579 12.42160034 C2.22653944 15.13794443 2.21096401 17.85401618 2.1953125 20.5703125 C2.19158345 22.45075328 2.18873597 24.33119599 2.18673706 26.2116394 C2.17909207 31.16665998 2.15943619 36.12156374 2.1373291 41.07653809 C2.11688928 46.1304364 2.10773934 51.18435354 2.09765625 56.23828125 C2.07619109 66.15890555 2.04204474 76.07944307 2 86 C-4.35577373 87.31912285 -4.35577373 87.31912285 -6.91323853 86.05226135 C-8.59962604 82.8676546 -8.41654966 79.68036335 -8.38818359 76.16381836 C-8.39344055 75.36680008 -8.39869751 74.5697818 -8.40411377 73.74861145 C-8.41732598 71.11215666 -8.40857239 68.47630475 -8.3984375 65.83984375 C-8.40045769 64.01046126 -8.40336866 62.18107956 -8.40713501 60.35169983 C-8.41155984 56.51751031 -8.40512146 52.6835304 -8.39111328 48.84936523 C-8.37400919 43.92715521 -8.38386925 39.00543546 -8.40183067 34.08324337 C-8.41265393 30.30607893 -8.40922911 26.52903138 -8.4014473 22.75186348 C-8.39944187 20.9365184 -8.40191652 19.12116281 -8.40888596 17.30583 C-8.41647791 14.77252821 -8.40492912 12.24002889 -8.38818359 9.70678711 C-8.39425629 8.95193024 -8.40032898 8.19707336 -8.40658569 7.41934204 C-8.38095093 5.33335876 -8.38095093 5.33335876 -8 2 C-4.77626323 -0.14915785 -3.73296326 -0.38286803 0 0 Z " fill="#4F91E7" transform="translate(483,441)"/>
<path d="M0 0 C2.99352871 0.24271854 4.70928565 0.78531049 7.13661194 2.5778656 C9.6420772 5.83460729 9.55540324 8.62196801 9.50170898 12.56665039 C9.50711197 13.32319412 9.51251495 14.07973785 9.51808167 14.85920715 C9.53057232 17.35575681 9.51407826 19.8511541 9.49609375 22.34765625 C9.49624872 24.08353231 9.49773728 25.81940873 9.50050354 27.55528259 C9.50188762 31.19106362 9.48932688 34.82645019 9.46655273 38.4621582 C9.43814675 43.12532177 9.44091094 47.78783097 9.45364285 52.45104313 C9.46059286 56.03439436 9.4528189 59.61759396 9.44038582 63.20092583 C9.4358662 64.92054094 9.43553897 66.64017229 9.43945122 68.35978889 C9.44235739 70.76111438 9.42588673 73.16153316 9.40405273 75.56274414 C9.40855438 76.27503174 9.41305603 76.98731934 9.41769409 77.72119141 C9.3740339 80.60691502 9.31968617 82.54443925 7.63490295 84.94529724 C5.31673974 86.44078242 3.69840903 86.34594988 1 86 C-1.52001472 83.47998528 -1.23934128 81.93249032 -1.25994873 78.49497986 C-1.25432922 77.72763016 -1.24870972 76.96028046 -1.24291992 76.16967773 C-1.24481827 75.36144562 -1.24671661 74.5532135 -1.24867249 73.7204895 C-1.25238576 71.04142646 -1.24166913 68.36263281 -1.23046875 65.68359375 C-1.22927725 63.82796765 -1.22882372 61.97234094 -1.2290802 60.11671448 C-1.22751443 56.22531364 -1.21921703 52.33400468 -1.20581055 48.44262695 C-1.18880876 43.44308468 -1.18499648 38.44364337 -1.18575573 33.44407558 C-1.18548443 29.61207609 -1.1800098 25.78009887 -1.17275429 21.94810677 C-1.16956207 20.1040266 -1.16759893 18.25994391 -1.16686058 16.41586113 C-1.16470351 13.84417248 -1.15597346 11.27259309 -1.14526367 8.70092773 C-1.14571686 7.9315538 -1.14617004 7.16217987 -1.14663696 6.36949158 C-1.1144747 1.1144747 -1.1144747 1.1144747 0 0 Z " fill="#7468DC" transform="translate(589,442)"/>
<path d="M0 0 C0.02688151 1.64574566 0.04634123 3.29161413 0.0625 4.9375 C0.07410156 5.85402344 0.08570313 6.77054687 0.09765625 7.71484375 C0 10 0 10 -1 11 C-3.51321992 11.41436601 -6.03015644 11.77080815 -8.5546875 12.109375 C-11.91711996 13.33403091 -12.4551365 14.81428307 -14 18 C-14.49867358 21.08618895 -14.49867358 21.08618895 -14.51171875 24.39453125 C-14.54716797 25.59658203 -14.58261719 26.79863281 -14.61914062 28.03710938 C-14.65297852 29.90592773 -14.65297852 29.90592773 -14.6875 31.8125 C-14.72166016 33.07771484 -14.75582031 34.34292969 -14.79101562 35.64648438 C-14.87336545 38.76401359 -14.9383625 41.88199251 -15 45 C-18.96 45 -22.92 45 -27 45 C-27 30.48 -27 15.96 -27 1 C-23.04 1 -19.08 1 -15 1 C-14.67 2.32 -14.34 3.64 -14 5 C-13.236875 4.360625 -12.47375 3.72125 -11.6875 3.0625 C-7.70935607 0.00950582 -4.88502293 -0.10855607 0 0 Z " fill="#090909" transform="translate(732,476)"/>
<path d="M0 0 C2.5 1.5625 2.5 1.5625 4 4 C4.73072741 8.46555638 4.50761596 10.2833657 1.875 14 C-1 16 -1 16 -4.0625 15.8125 C-5.031875 15.544375 -6.00125 15.27625 -7 15 C-8.32 15 -9.64 15 -11 15 C-11.33 15.33 -11.66 15.66 -12 16 C-13.89519319 16.07958043 -15.79126921 16.13851987 -17.6875 16.1875 C-21.96754357 16.49831269 -24.59520643 16.80544388 -27.6875 19.875 C-30.10861631 22.80898145 -30.10861631 22.80898145 -31 26 C-24.07 26 -17.14 26 -10 26 C-9.34 24.35 -8.68 22.7 -8 21 C-4.48746854 18.65831236 -3.13530644 18.50376323 1 19 C3.875 20.5625 3.875 20.5625 6 23 C6.6694949 27.09135771 6.38501272 29.24601675 4.5 32.9375 C1.861844 35.1139787 1.19467152 35.36203509 -2.0625 35.5 C-6 35 -6 35 -7.43798828 33.48974609 C-9.59876967 31.42893209 -10.98448755 31.64506121 -13.9296875 31.6640625 C-14.89003906 31.65117187 -15.85039063 31.63828125 -16.83984375 31.625 C-18.85548389 31.625 -20.87113964 31.63275206 -22.88671875 31.6484375 C-27.65357462 31.5718615 -30.24016575 31.51931118 -34.2578125 28.7734375 C-36 26 -36 26 -36.046875 23.51953125 C-33.87600069 18.2948524 -30.57399581 14.31220386 -26 11 C-21.53498684 10.17499757 -17.48209289 10.37652495 -13 11 C-13.04125 10.06929688 -13.0825 9.13859375 -13.125 8.1796875 C-13 5 -13 5 -11 2.125 C-6.85436985 -0.81148802 -5.00671711 -0.7152453 0 0 Z " fill="#21C3EC" transform="translate(620,401)"/>
<path d="M0 0 C3.63 0 7.26 0 11 0 C11 17.82 11 35.64 11 54 C7.37 54 3.74 54 0 54 C0 36.18 0 18.36 0 0 Z " fill="#8A4AB0" transform="translate(1082,467)"/>
<path d="M0 0 C3.8026029 2.0050088 5.61790841 3.42686262 8 7 C8.65868019 12.37666855 8.93047242 17.3384421 6.25 22.125 C2.03988052 25.6334329 -1.33520667 26.50260266 -6.74609375 26.38671875 C-11.25729059 25.61270058 -13.71944182 22.7462157 -16.375 19.125 C-17.67156778 14.71666955 -17.40662687 11.09147212 -15.8125 6.8125 C-11.68009232 0.40014325 -7.40326289 -1.31642527 0 0 Z " fill="#F7F7F7" transform="translate(817,486)"/>
<path d="M0 0 C2.5625 0.3125 2.5625 0.3125 4.19839478 1.53259277 C5.97345177 3.84871672 5.94258306 5.20249873 5.95068359 8.10351562 C5.96014008 9.0746228 5.96959656 10.04572998 5.9793396 11.04626465 C5.97326691 12.09318481 5.96719421 13.14010498 5.9609375 14.21875 C5.96524277 15.83311951 5.96524277 15.83311951 5.96963501 17.48010254 C5.97167725 19.75643439 5.96613629 22.03278372 5.95361328 24.30908203 C5.93756255 27.79890073 5.95345728 31.28756119 5.97265625 34.77734375 C5.97067385 36.98698173 5.96683024 39.19661899 5.9609375 41.40625 C5.97004654 42.97663025 5.97004654 42.97663025 5.9793396 44.57873535 C5.96988312 45.54984253 5.96042664 46.52094971 5.95068359 47.52148438 C5.94829681 48.37625366 5.94591003 49.23102295 5.94345093 50.11169434 C5.47767239 52.80256072 4.7310231 53.6951592 2.5625 55.3125 C0 55.625 0 55.625 -2.4375 55.3125 C-4.9636485 52.7863515 -4.69007703 51.93174387 -4.69628906 48.43554688 C-4.70259338 47.42109497 -4.70889771 46.40664307 -4.71539307 45.3614502 C-4.7113446 44.26248413 -4.70729614 43.16351807 -4.703125 42.03125 C-4.70503845 40.90682495 -4.7069519 39.7823999 -4.70892334 38.62390137 C-4.71028617 36.24324317 -4.70658294 33.86257757 -4.69824219 31.48193359 C-4.68754429 27.82763047 -4.69813444 24.17381899 -4.7109375 20.51953125 C-4.70961592 18.21093641 -4.70705357 15.90234188 -4.703125 13.59375 C-4.70717346 12.49478394 -4.71122192 11.39581787 -4.71539307 10.2635498 C-4.70908875 9.2490979 -4.70278442 8.234646 -4.69628906 7.18945312 C-4.69469788 6.29391724 -4.69310669 5.39838135 -4.69146729 4.47570801 C-4.30842172 1.21305455 -3.19794901 0.40999346 0 0 Z " fill="#489AEA" transform="translate(461.4375,459.6875)"/>
<path d="M0 0 C3.30417217 2.76628368 4.47549311 4.59585321 5.0234375 8.87109375 C5.12893534 16.47748815 5.12893534 16.47748815 2.9375 20.3125 C-0.44328329 23.22373005 -2.1851082 24.14561187 -6.6875 24.5625 C-11.64928443 24.13475996 -14.81227385 22.90024877 -18.1875 19.1875 C-19.85484588 14.83387466 -19.97499357 10.85064976 -19.3125 6.25 C-17.60053735 2.69926266 -16.37847467 0.88382277 -13 -1.125 C-7.98898462 -2.29035241 -4.61888597 -2.44016617 0 0 Z " fill="#F9FBFD" transform="translate(932.3125,487.75)"/>
<path d="M0 0 C3 0.25 3 0.25 5 2.25 C5.26069641 4.29931641 5.26069641 4.29931641 5.2746582 6.8515625 C5.28419022 7.80595215 5.29372223 8.7603418 5.30354309 9.74365234 C5.30263168 10.77699707 5.30172028 11.8103418 5.30078125 12.875 C5.30506638 13.93283691 5.3093515 14.99067383 5.31376648 16.08056641 C5.31951656 18.31997969 5.32000508 20.55941165 5.31567383 22.79882812 C5.31251288 26.23599903 5.3359687 29.67231055 5.36132812 33.109375 C5.36360084 35.28124891 5.36430474 37.45312514 5.36328125 39.625 C5.372491 40.65834473 5.38170074 41.69168945 5.39118958 42.75634766 C5.38496078 43.7107373 5.37873199 44.66512695 5.37231445 45.6484375 C5.37294388 46.49067871 5.3735733 47.33291992 5.3742218 48.20068359 C5.25072861 48.87695801 5.12723541 49.55323242 5 50.25 C2 52.25 2 52.25 -1.125 52 C-2.07375 51.7525 -3.0225 51.505 -4 51.25 C-5.19035891 48.86928218 -5.13298146 47.3968262 -5.14526367 44.74023438 C-5.15164352 43.80586548 -5.15802338 42.87149658 -5.16459656 41.90881348 C-5.16570938 40.89734253 -5.1668222 39.88587158 -5.16796875 38.84375 C-5.17129715 37.80810913 -5.17462555 36.77246826 -5.17805481 35.70544434 C-5.18312336 33.51310674 -5.18546316 31.32076142 -5.18530273 29.12841797 C-5.18749098 25.76386912 -5.20565242 22.39964711 -5.22460938 19.03515625 C-5.22754288 16.90885529 -5.22952796 14.78255277 -5.23046875 12.65625 C-5.24124702 11.13904358 -5.24124702 11.13904358 -5.25224304 9.59118652 C-5.24916641 8.65681763 -5.24608978 7.72244873 -5.24291992 6.75976562 C-5.24434494 5.93528931 -5.24576996 5.11081299 -5.24723816 4.26135254 C-4.81051727 0.70850428 -3.3887883 0.28239902 0 0 Z " fill="#7F58D7" transform="translate(611,460.75)"/>
<path d="M0 0 C13.20819113 -0.44027304 13.20819113 -0.44027304 18 3 C21.4019921 6.77908038 21.56418261 9.64719428 21.42578125 14.5859375 C20.77296266 18.28723924 18.97635924 19.85425264 16 22 C10.83608171 23.7213061 5.40708764 23.05353552 0 23 C0 15.41 0 7.82 0 0 Z " fill="#F5F5F5" transform="translate(664,469)"/>
<path d="M0 0 C2.5 1.5625 2.5 1.5625 4 4 C4.73072741 8.46555638 4.50761596 10.2833657 1.875 14 C-1 16 -1 16 -4.0625 15.8125 C-5.031875 15.544375 -6.00125 15.27625 -7 15 C-8.32 15 -9.64 15 -11 15 C-11.33 15.33 -11.66 15.66 -12 16 C-14.01964199 16.07244053 -16.04167124 16.08377188 -18.0625 16.0625 C-19.16722656 16.05347656 -20.27195312 16.04445313 -21.41015625 16.03515625 C-22.69212891 16.01775391 -22.69212891 16.01775391 -24 16 C-24 15.67 -24 15.34 -24 15 C-23.28972656 14.87882812 -22.57945312 14.75765625 -21.84765625 14.6328125 C-20.92855469 14.46523438 -20.00945313 14.29765625 -19.0625 14.125 C-17.68771484 13.88136719 -17.68771484 13.88136719 -16.28515625 13.6328125 C-15.53105469 13.42398437 -14.77695312 13.21515625 -14 13 C-12.75654525 10.95029852 -12.75654525 10.95029852 -13.25 8.1875 C-13 5 -13 5 -11 2.125 C-6.85436985 -0.81148802 -5.00671711 -0.7152453 0 0 Z " fill="#2CD0F0" transform="translate(620,401)"/>
<path d="M0 0 C0.66 0 1.32 0 2 0 C4.74972528 7.64054098 7.47191206 15.28267891 10 23 C4.39 23 -1.22 23 -7 23 C-6.35566405 19.13398431 -5.86949609 16.23477641 -4.58984375 12.6953125 C-4.18862305 11.57382812 -4.18862305 11.57382812 -3.77929688 10.4296875 C-3.50150391 9.66914063 -3.22371094 8.90859375 -2.9375 8.125 C-2.65583984 7.34125 -2.37417969 6.5575 -2.08398438 5.75 C-1.39386218 3.83169424 -0.69755684 1.91561481 0 0 Z " fill="#F7F3F9" transform="translate(1046,478)"/>
<path d="M0 0 C2.4375 0.3125 2.4375 0.3125 4.4375 2.3125 C4.69628906 4.16015625 4.69628906 4.16015625 4.703125 6.375 C4.70570313 7.17164063 4.70828125 7.96828125 4.7109375 8.7890625 C4.70320313 9.62179687 4.69546875 10.45453125 4.6875 11.3125 C4.69523437 12.14523437 4.70296875 12.97796875 4.7109375 13.8359375 C4.70835937 14.63257813 4.70578125 15.42921875 4.703125 16.25 C4.70086914 16.98089844 4.69861328 17.71179688 4.69628906 18.46484375 C4.4375 20.3125 4.4375 20.3125 2.4375 22.3125 C-0.5625 22.5625 -0.5625 22.5625 -3.5625 22.3125 C-6.17292212 19.70207788 -5.85096788 17.80128815 -5.88476562 14.24023438 C-5.88154297 13.45970703 -5.87832031 12.67917969 -5.875 11.875 C-5.89111328 11.09833984 -5.90722656 10.32167969 -5.92382812 9.52148438 C-5.92877626 3.77669495 -5.92877626 3.77669495 -4.19995117 1.58569336 C-2.5625 0.3125 -2.5625 0.3125 0 0 Z " fill="#3EB8EF" transform="translate(443.5625,476.6875)"/>
<path d="M0 0 C3 1.5625 3 1.5625 5 4 C5.33 6.31 5.66 8.62 6 11 C-1.26 11 -8.52 11 -16 11 C-15.01221524 6.06107618 -14.26400276 4.56073029 -11 1 C-7.52876063 -0.73561969 -3.79525855 -0.45883955 0 0 Z " fill="#F1F1F1" transform="translate(763,484)"/>
<path d="M0 0 C2.5625 0.3125 2.5625 0.3125 4.19921875 1.36328125 C6.26969803 4.32365133 5.99712899 7.33414201 5.9375 10.8125 C5.94910156 11.48925781 5.96070313 12.16601562 5.97265625 12.86328125 C5.95531656 15.79368867 5.90561151 17.82191937 4.19921875 20.26171875 C1.8793192 21.75110534 0.25953524 21.65827375 -2.4375 21.3125 C-5.06473824 18.68526176 -4.69865971 16.77038327 -4.7109375 13.19140625 C-4.70320312 12.40636719 -4.69546875 11.62132812 -4.6875 10.8125 C-4.69523438 10.02746094 -4.70296875 9.24242187 -4.7109375 8.43359375 C-4.6840659 0.60052127 -4.6840659 0.60052127 0 0 Z " fill="#925AD8" transform="translate(628.4375,477.6875)"/>
<path d="M0 0 C2.875 1.5625 2.875 1.5625 5 4 C5.3125 7.75 5.3125 7.75 5 11 C3.35 11.66 1.7 12.32 0 13 C-0.33 12.67 -0.66 12.34 -1 12 C-2.66014616 11.63557767 -4.32706064 11.30027117 -6 11 C-6.33 9.35 -6.66 7.7 -7 6 C-8.32 6.33 -9.64 6.66 -11 7 C-8.94995143 1.00755033 -6.38855936 -0.76662712 0 0 Z " fill="#2A77E4" transform="translate(621,420)"/>
<path d="M0 0 C0.66 0.33 1.32 0.66 2 1 C1.54391861 1.45164017 1.08783722 1.90328033 0.61793518 2.36860657 C-4.17460014 7.11652136 -8.95978343 11.87175802 -13.7409668 16.63110352 C-15.52070771 18.40085404 -17.30224783 20.16879727 -19.08569336 21.93481445 C-32.7053852 35.37102243 -32.7053852 35.37102243 -45 50 C-46.01423591 51.2346161 -47.03412148 52.46463901 -48.0625 53.6875 C-48.701875 54.450625 -49.34125 55.21375 -50 56 C-50 52.0103335 -48.61028236 50.96435255 -46.0625 47.9375 C-45.24136719 46.96039063 -44.42023438 45.98328125 -43.57421875 44.9765625 C-40.46147564 41.37730567 -37.30120544 37.82751966 -34.09375 34.3125 C-32.31095614 32.34344409 -30.58881553 30.34109798 -28.875 28.3125 C-21.09386416 19.38332773 -12.4812153 10.82194929 -3.41796875 3.19921875 C-1.85892049 1.91444826 -1.85892049 1.91444826 0 0 Z " fill="#F2F2F2" transform="translate(524,220)"/>
<path d="M0 0 C5.36842105 -0.35789474 5.36842105 -0.35789474 7.875 1.0625 C9.69632206 4.19922133 9.48924087 6.45300373 9 10 C6.875 13 6.875 13 4 15 C0.6875 14.8125 0.6875 14.8125 -2 14 C-2 12.68 -2 11.36 -2 10 C-0.35 9.67 1.3 9.34 3 9 C3.25030977 6.58380177 3.25030977 6.58380177 3 4 C2.01 3.34 1.02 2.68 0 2 C0 1.34 0 0.68 0 0 Z " fill="#15D1EF" transform="translate(615,402)"/>
<path d="M0 0 C0.66 1.65 1.32 3.3 2 5 C2.928125 4.95875 3.85625 4.9175 4.8125 4.875 C8 5 8 5 11 7 C10 8.5 10 8.5 8 10 C4.32571131 10.59707191 1.12306873 10.77210975 -2 8.625 C-3 7 -3 7 -3 5 C-7.95 5 -12.9 5 -18 5 C-18 4.67 -18 4.34 -18 4 C-15.03 4 -12.06 4 -9 4 C-9 3.34 -9 2.68 -9 2 C-2.25 0 -2.25 0 0 0 Z " fill="#3470D9" transform="translate(614,426)"/>
<path d="M0 0 C7.26 0.33 14.52 0.66 22 1 C22 1.33 22 1.66 22 2 C20.35 2 18.7 2 17 2 C17 2.66 17 3.32 17 4 C19.97 4.495 19.97 4.495 23 5 C23 5.33 23 5.66 23 6 C15.74 6 8.48 6 1 6 C0.67 4.02 0.34 2.04 0 0 Z " fill="#39AEE2" transform="translate(588,426)"/>
<path d="M0 0 C0.33 0.66 0.66 1.32 1 2 C-0.10794922 1.94779297 -0.10794922 1.94779297 -1.23828125 1.89453125 C-10.3347344 1.65180505 -18.99315814 2.07664336 -26.1875 8.1875 C-27.5796875 9.5796875 -27.5796875 9.5796875 -29 11 C-29.66 10.67 -30.32 10.34 -31 10 C-21.10005439 0.38968045 -13.38971263 -0.47073208 0 0 Z " fill="#45D5F6" transform="translate(544,404)"/>
<path d="M0 0 C2.375 -0.125 2.375 -0.125 5 0 C7 2 7 2 7.22705078 4.33837891 C7.21657715 5.29147949 7.20610352 6.24458008 7.1953125 7.2265625 C7.18886719 8.2578125 7.18242187 9.2890625 7.17578125 10.3515625 C7.15902344 11.43179687 7.14226562 12.51203125 7.125 13.625 C7.11597656 14.71296875 7.10695313 15.8009375 7.09765625 16.921875 C7.07403409 19.61480152 7.04109556 22.30729255 7 25 C6.67 25 6.34 25 6 25 C5.9498877 24.37432129 5.89977539 23.74864258 5.84814453 23.10400391 C5.61644196 20.27681225 5.37089791 17.45099085 5.125 14.625 C5.04636719 13.64015625 4.96773438 12.6553125 4.88671875 11.640625 C4.80292969 10.69960938 4.71914063 9.75859375 4.6328125 8.7890625 C4.55949707 7.91975098 4.48618164 7.05043945 4.41064453 6.15478516 C4.17026524 3.79544356 4.17026524 3.79544356 2 2 C1.34 1.34 0.68 0.68 0 0 Z " fill="#43C6F0" transform="translate(478,441)"/>
<path d="M0 0 C4.62 0 9.24 0 14 0 C14.33 2.31 14.66 4.62 15 7 C13 4 13 4 13 2 C9.7 2.33 6.4 2.66 3 3 C3 4.65 3 6.3 3 8 C1 5 1 5 0 0 Z " fill="#30A8E1" transform="translate(840,459)"/>
<path d="M0 0 C0 1.65 0 3.3 0 5 C-5.94 5 -11.88 5 -18 5 C-18 4.67 -18 4.34 -18 4 C-15.03 4 -12.06 4 -9 4 C-9 3.34 -9 2.68 -9 2 C-2.25 0 -2.25 0 0 0 Z " fill="#1E74DA" transform="translate(614,426)"/>
<path d="M0 0 C2.00720923 0.28674418 4.0085944 0.61866701 6 1 C5.67 2.65 5.34 4.3 5 6 C3.34385343 6.38218767 1.67542976 6.71395102 0 7 C-1 6 -1 6 -1.125 3.5 C-1 1 -1 1 0 0 Z " fill="#E6EFFA" transform="translate(616,425)"/>
<path d="M0 0 C-1.32 0.99 -2.64 1.98 -4 3 C-2.68 3.33 -1.36 3.66 0 4 C-0.33 4.66 -0.66 5.32 -1 6 C-2.32 6 -3.64 6 -5 6 C-5.66 7.32 -6.32 8.64 -7 10 C-7 8.68 -7 7.36 -7 6 C-8.32 6.33 -9.64 6.66 -11 7 C-8.87296567 0.78251503 -6.45381515 -0.28683623 0 0 Z " fill="#4088E1" transform="translate(621,420)"/>
<path d="M0 0 C1.67542976 0.28604898 3.34385343 0.61781233 5 1 C5.042721 2.66611905 5.04063832 4.33382885 5 6 C4 7 4 7 1.4375 7.0625 C0.2309375 7.0315625 0.2309375 7.0315625 -1 7 C-1.04254356 5.00045254 -1.04080783 2.99958364 -1 1 C-0.67 0.67 -0.34 0.34 0 0 Z " fill="#E3F8FB" transform="translate(614,405)"/>
<path d="M0 0 C2.0625 0.4375 2.0625 0.4375 4 1 C3.01 1.66 2.02 2.32 1 3 C0.61667326 5.27547898 0.61667326 5.27547898 0.77734375 7.90234375 C0.79603516 8.87494141 0.81472656 9.84753906 0.83398438 10.84960938 C0.86814453 11.86861328 0.90230469 12.88761719 0.9375 13.9375 C0.99744699 15.94636199 1.04861984 17.95551034 1.08984375 19.96484375 C1.11941162 20.8580835 1.14897949 21.75132324 1.17944336 22.67163086 C1 25 1 25 -1 28 C-1.02886338 23.52084672 -1.04675187 19.04171709 -1.0625 14.5625 C-1.07087891 13.28310547 -1.07925781 12.00371094 -1.08789062 10.68554688 C-1.09111328 9.47060547 -1.09433594 8.25566406 -1.09765625 7.00390625 C-1.10289307 5.87799072 -1.10812988 4.7520752 -1.11352539 3.59204102 C-1 1 -1 1 0 0 Z " fill="#5186ED" transform="translate(495,476)"/>
<path d="M0 0 C1.2065625 0.0309375 1.2065625 0.0309375 2.4375 0.0625 C1.79006836 0.43415283 1.14263672 0.80580566 0.47558594 1.1887207 C-1.81319438 2.92379606 -1.81319438 2.92379606 -2.10839844 5.78979492 C-2.1293457 6.86334229 -2.15029297 7.93688965 -2.171875 9.04296875 C-2.20410156 10.20634766 -2.23632812 11.36972656 -2.26953125 12.56835938 C-2.28371094 13.78330078 -2.29789063 14.99824219 -2.3125 16.25 C-2.34214844 17.47654297 -2.37179687 18.70308594 -2.40234375 19.96679688 C-2.47312899 22.99876453 -2.52578413 26.02995933 -2.5625 29.0625 C-3.2225 29.3925 -3.8825 29.7225 -4.5625 30.0625 C-4.44451748 25.95056264 -4.32028941 21.83886712 -4.19018555 17.72729492 C-4.14678566 16.32760801 -4.10511436 14.92786641 -4.06518555 13.52807617 C-4.00760555 11.51988505 -3.94336 9.51188851 -3.87890625 7.50390625 C-3.84224854 6.29420166 -3.80559082 5.08449707 -3.76782227 3.83813477 C-3.49020069 0.08512685 -3.49020069 0.08512685 0 0 Z " fill="#8A78E3" transform="translate(576.5625,475.9375)"/>
<path d="M0 0 C0.99 0.33 1.98 0.66 3 1 C2.2733313 2.0667395 2.2733313 2.0667395 1.53198242 3.1550293 C-0.12475781 6.23168171 -0.41510883 8.06089618 -0.51171875 11.51953125 C-0.54716797 12.54111328 -0.58261719 13.56269531 -0.61914062 14.61523438 C-0.64169922 15.67033203 -0.66425781 16.72542969 -0.6875 17.8125 C-0.72166016 18.88693359 -0.75582031 19.96136719 -0.79101562 21.06835938 C-0.87326643 23.71213533 -0.94249209 26.35558921 -1 29 C-1.33 29 -1.66 29 -2 29 C-2.0578304 24.54172074 -2.09353855 20.0835372 -2.125 15.625 C-2.14175781 14.35398437 -2.15851563 13.08296875 -2.17578125 11.7734375 C-2.18222656 10.56171875 -2.18867188 9.35 -2.1953125 8.1015625 C-2.21102295 6.42054443 -2.21102295 6.42054443 -2.22705078 4.70556641 C-2 2 -2 2 0 0 Z " fill="#24B6EB" transform="translate(459,460)"/>
<path d="M0 0 C0.625 1.875 0.625 1.875 1 4 C0.34 4.66 -0.32 5.32 -1 6 C-4.125 5.625 -4.125 5.625 -7 5 C-7 3.68 -7 2.36 -7 1 C-2.25 0 -2.25 0 0 0 Z " fill="#22C1EA" transform="translate(620,411)"/>
<path d="M0 0 C2.0625 0.4375 2.0625 0.4375 4 1 C3.34 1 2.68 1 2 1 C1.23581011 7.65936905 0.58660246 14.32271667 0 21 C-0.33 21 -0.66 21 -1 21 C-1.02888146 17.68751813 -1.04675799 14.37506833 -1.0625 11.0625 C-1.07087891 10.11697266 -1.07925781 9.17144531 -1.08789062 8.19726562 C-1.09111328 7.29814453 -1.09433594 6.39902344 -1.09765625 5.47265625 C-1.10289307 4.64000244 -1.10812988 3.80734863 -1.11352539 2.94946289 C-1 1 -1 1 0 0 Z " fill="#6D9CE7" transform="translate(589,442)"/>
<path d="M0 0 C0.33 0 0.66 0 1 0 C1.36923077 6.52307692 1.36923077 6.52307692 -0.5 8.9375 C-0.995 9.288125 -1.49 9.63875 -2 10 C-3.42944945 7.64561267 -4.08661261 6.51967567 -3.625 3.75 C-3.41875 3.1725 -3.2125 2.595 -3 2 C-2.34 2 -1.68 2 -1 2 C-0.67 1.34 -0.34 0.68 0 0 Z " fill="#2FCEF0" transform="translate(623,405)"/>
<path d="M0 0 C2.0625 0.4375 2.0625 0.4375 4 1 C2.88671875 2.48828125 2.88671875 2.48828125 1 4 C-1.91796875 4.29296875 -1.91796875 4.29296875 -5.1875 4.1875 C-6.27417969 4.16042969 -7.36085938 4.13335937 -8.48046875 4.10546875 C-9.31191406 4.07066406 -10.14335938 4.03585937 -11 4 C-11 3.67 -11 3.34 -11 3 C-10.28972656 2.86722656 -9.57945312 2.73445313 -8.84765625 2.59765625 C-7.92855469 2.42105469 -7.00945313 2.24445313 -6.0625 2.0625 C-4.68771484 1.80146484 -4.68771484 1.80146484 -3.28515625 1.53515625 C-1.04710156 1.22285012 -1.04710156 1.22285012 0 0 Z " fill="#4AC9EA" transform="translate(607,413)"/>
<path d="M0 0 C0.99 0.33 1.98 0.66 3 1 C3.33 1.99 3.66 2.98 4 4 C3.01 4.495 3.01 4.495 2 5 C1.67 4.34 1.34 3.68 1 3 C-0.65 4.65 -2.3 6.3 -4 8 C-4.66 7.67 -5.32 7.34 -6 7 C-4.02 4.69 -2.04 2.38 0 0 Z " fill="#36CCF1" transform="translate(591,415)"/>
<path d="M0 0 C1.32 0 2.64 0 4 0 C3.67 0.99 3.34 1.98 3 3 C-0.96 3 -4.92 3 -9 3 C-9 2.67 -9 2.34 -9 2 C-6.03 2 -3.06 2 0 2 C0 1.34 0 0.68 0 0 Z " fill="#1695DA" transform="translate(605,428)"/>
<path d="M0 0 C-1.28519565 2.86697492 -2.57129254 4.97607712 -5 7 C-5.66 7 -6.32 7 -7 7 C-3.86206897 0 -3.86206897 0 0 0 Z " fill="#4299E0" transform="translate(911,480)"/>
<path d="M0 0 C2.31 0 4.62 0 7 0 C6.360625 0.2475 5.72125 0.495 5.0625 0.75 C2.81258459 1.81562433 2.81258459 1.81562433 2.25 4.125 C2.1675 4.74375 2.085 5.3625 2 6 C1.34 6 0.68 6 0 6 C0 4.02 0 2.04 0 0 Z " fill="#5D87E2" transform="translate(507,478)"/>
</svg>
